<svg xmlns="http://www.w3.org/2000/svg" width="1600" height="1000" viewBox="0 0 1600 1000">
<g fill="none" stroke="#b58b49" stroke-width="3" opacity=".32">
  <path d="M1180 110c-70 55-105 135-88 221 14 72 68 136 139 170"/>
  <path d="M1260 160c-35 20-56 50-58 89"/>
  <circle cx="1215" cy="210" r="28"/><circle cx="1270" cy="240" r="28"/><circle cx="1218" cy="275" r="28"/><circle cx="1272" cy="305" r="28"/><circle cx="1220" cy="340" r="28"/>
  <path d="M1220 176c24-37 55-65 96-84"/>
  <path d="M120 750c85-72 178-96 280-65 82 24 142 76 187 152"/>
  <path d="M175 812c85-20 164-8 236 34"/>
  <path d="M290 625c-36 30-55 67-57 112"/>
  <path d="M420 115c-25 45-37 98-26 153 10 47 37 88 78 121"/>
  <path d="M390 122c-28 0-49 14-64 41"/>
  <path d="M1460 740c-80-65-159-84-246-58"/>
</g>
<g fill="none" stroke="#173d31" stroke-width="4" opacity=".14">
  <path d="M1010 510h170"/>
  <path d="M1080 255v255"/>
  <path d="M1045 315h70l-6 42v153h-58V357z"/>
  <path d="M1060 390h40"/>
  <path d="M1340 560c-18 30-28 67-28 111 0 74 29 126 67 126s67-52 67-126c0-44-10-81-28-111z"/>
  <path d="M1318 560h106"/>
  <path d="M1379 797v80"/>
  <path d="M1337 877h84"/>
</g>
</svg>